<?xml version="1.0" standalone="yes"?>
<svg xmlns="http://www.w3.org/2000/svg" width="264" height="264" viewBox="0 0 264 264">
 <style type="text/css">
  <![CDATA[
	svg { fill: transparent; }
	#contour { stroke: #808080; stroke-width: 12; fill: #808080; stroke-linejoin: round; }
  ]]>
 </style>
 <g>
  <path id="contour" d="M22,22 v14 a30 13, 0, 0, 1, 30,13 v161 a30 14, 0, 0, 1, -30,14 v18 h 140
	a 80 61, 0, 0, 0, 0,-122
	a 55 45, 0, 0, 0, -5,-98 z
	m85,16 a 2 2, 0, 0, 1, 2,-2 h31 a36 38.5, 0, 0, 1, 5,77 h-36 a 2 2, 0, 0, 1, -2,-2 z
	m0,93 a 2 2, 0, 0, 1, 2,-2 h37 a 40 47.5, 0, 0, 1, 0,95 h-37 a 2 2, 0, 0, 1, -2,-2 z" />
 </g>
</svg>
