<?xml version="1.0" encoding="UTF-8" standalone="no"?>
<svg xmlns="http://www.w3.org/2000/svg" viewBox="0 0 264 264" height="264" width="264">
 <defs>
  <linearGradient id="plate" x1="25%" y1="0%" x2="75%" y2="100%">
   <stop offset="0%" stop-color="#d4d6df" />
   <stop offset="100%" stop-color="#ababb4" />
  </linearGradient>
  <linearGradient id="outer-bevel" x1="25%" y1="0%" x2="75%" y2="100%">
   <stop offset="0%" stop-color="#c4c6cf" />
   <stop offset="100%" stop-color="#9b9ba8" />
  </linearGradient>
  <linearGradient id="inner-bevel" x1="25%" y1="0%" x2="75%" y2="100%">
   <stop offset="0%" stop-color="#9b9ba8" />
   <stop offset="100%" stop-color="#ebebf2" />
  </linearGradient>
 </defs>
 <style type="text/css"><![CDATA[
  svg { fill: transparent; }
  #gear { fill: url(#plate); stroke: none; }
  #inner { fill: none; stroke: url(#inner-bevel); stroke-width: 16; }
  #edge { fill: none; stroke: url(#inner-bevel); stroke-width: 4; }
  #outer { fill: none; stroke: url(#outer-bevel); stroke-width: 12; }
  ]]></style>
 <g>
  <path id="gear" fill-rule="evenodd" d="M 114, 16.25 a 5 5.5, 0, 0, 1, 5,-5.5 a 122 122, 0, 0, 1, 26,0 a 5 5.5, 0, 0, 1, 5, 5.5 v 20.5 a 5 5.5, 0, 0, 0, 4,5.5 a 92 92, 0, 0, 1, 25.5,10.5 a 5.5 5, 0, 0, 0, 7.5,-1.75 l 14,-14 a 5 5.5, 0, 0, 1, 7.25,-0.375 a 122 122, 0, 0, 1, 19.125,19.125 a 5 5.5, 0, 0, 1, -1.25,7.375 l -14,14 a 5 5.5, 0, 0, 0, -1.375,7.5 a 92 92, 0, 0, 1, 10.75,25.5 a 5.5 5, 0, 0, 0, 6,4 h 20.5 a 5 5.5, 0, 0, 1, 5.5,5 a 122 122, 0, 0, 1, 0,26 a 5 5.5, 0, 0, 1, -5.5, 5 h -20.5 a 5.5 5, 0, 0, 0, -6,4 a 92 92, 0, 0, 1, -10.75,25.5 a 5 5.5, 0, 0, 0, 1.625,7.5 l 14,14 a 5 5.5, 0, 0, 1, 0.75,7.25 a 122 122, 0, 0, 1, -19.125,19.125 a 5 5.5, 0, 0, 1, -7.375, -1.25 l -14,-14 a 5.5 5, 0, 0, 0, -7.25,-1.625 a 92 92, 0, 0, 1, -25.25,10.875 a 5 5.5, 0, 0 , 0, -4,5.75 v 20.5 a 5 5.5, 0, 0, 1, -5.25,5.5 a 122 122, 0, 0, 1, -26,0 a 5 5.5, 0, 0, 1, -5,-5.5 v -20.5 a 5 5.5, 0, 0 , 0, -4,-5.75 a 92 92, 0, 0, 1, -25.75,-10.75 a 5.5 5, 0, 0, 0, -7.25,1.75 l -14,14 a 5.5 5, 0, 0, 1, -7.375,0.75 a 122 122, 0, 0, 1, -19.125,-19.125 a 5 5.5, 0, 0, 1, 1.5,-7.5 l 14,-14 a 5 5.5, 0, 0, 0, 1.125,-7.5 a 92 92, 0, 0, 1, -10.75,-25.5 a 5.5 5, 0, 0, 0, -5.75,-3.75 h -20.5 a 5 5.5, 0, 0, 1, -5.5,-5 a 122 122, 0, 0, 1, 0,-26 a 5.5 5, 0, 0, 1, 5.75,-5 h 20.5 a 5.5 5, 0, 0, 0, 6,-4 a 92 92, 0, 0, 1, 10.75,-25.5a 5 5.5, 0, 0, 0, -1.75,-7.5 l -14,-14 a 5 5.5, 0, 0, 1, -0.75,-7.25 a 122 122, 0, 0, 1, 19.125,-19.125 a 5 5.5, 0, 0, 1, 7.375, 1.25 l 14,14 a 5.5 5, 0, 0, 0, 7.25,1.625 a 92 92, 0, 0, 1, 25.25,-10.875 a 5 5.5, 0, 0 , 0, 4,-5.75 M 132,100 a 32 32, 0, 0, 1, -0,64 a 32 32, 0, 0, 1, 0,-64 z" />
  <path id="outer" d="M 114, 16.25 a 5 5.5, 0, 0, 1, 5,-5.5 a 122 122, 0, 0, 1, 26,0 a 5 5.5, 0, 0, 1, 5, 5.5 v 20.5 a 5 5.5, 0, 0, 0, 4,5.5 a 92 92, 0, 0, 1, 25.5,10.5 a 5.5 5, 0, 0, 0, 7.5,-1.75 l 14,-14 a 5 5.5, 0, 0, 1, 7.25,-0.375 a 122 122, 0, 0, 1, 19.125,19.125 a 5 5.5, 0, 0, 1, -1.25,7.375 l -14,14 a 5 5.5, 0, 0, 0, -1.375,7.5 a 92 92, 0, 0, 1, 10.75,25.5 a 5.5 5, 0, 0, 0, 6,4 h 20.5 a 5 5.5, 0, 0, 1, 5.5,5 a 122 122, 0, 0, 1, 0,26 a 5 5.5, 0, 0, 1, -5.5, 5 h -20.5 a 5.5 5, 0, 0, 0, -6,4 a 92 92, 0, 0, 1, -10.75,25.5 a 5 5.5, 0, 0, 0, 1.625,7.5 l 14,14 a 5 5.5, 0, 0, 1, 0.75,7.25 a 122 122, 0, 0, 1, -19.125,19.125 a 5 5.5, 0, 0, 1, -7.375, -1.25 l -14,-14 a 5.5 5, 0, 0, 0, -7.25,-1.625 a 92 92, 0, 0, 1, -25.25,10.875 a 5 5.5, 0, 0 , 0, -4,5.75 v 20.5 a 5 5.5, 0, 0, 1, -5.25,5.5 a 122 122, 0, 0, 1, -26,0 a 5 5.5, 0, 0, 1, -5,-5.5 v -20.5 a 5 5.5, 0, 0 , 0, -4,-5.75 a 92 92, 0, 0, 1, -25.75,-10.75 a 5.5 5, 0, 0, 0, -7.25,1.75 l -14,14 a 5.5 5, 0, 0, 1, -7.375,0.75 a 122 122, 0, 0, 1, -19.125,-19.125 a 5 5.5, 0, 0, 1, 1.5,-7.5 l 14,-14 a 5 5.5, 0, 0, 0, 1.125,-7.5 a 92 92, 0, 0, 1, -10.75,-25.5 a 5.5 5, 0, 0, 0, -5.75,-3.75 h -20.5 a 5 5.5, 0, 0, 1, -5.5,-5 a 122 122, 0, 0, 1, 0,-26 a 5.5 5, 0, 0, 1, 5.75,-5 h 20.5 a 5.5 5, 0, 0, 0, 6,-4 a 92 92, 0, 0, 1, 10.75,-25.5a 5 5.5, 0, 0, 0, -1.75,-7.5 l -14,-14 a 5 5.5, 0, 0, 1, -0.75,-7.25 a 122 122, 0, 0, 1, 19.125,-19.125 a 5 5.5, 0, 0, 1, 7.375, 1.25 l 14,14 a 5.5 5, 0, 0, 0, 7.25,1.625 a 92 92, 0, 0, 1, 25.25,-10.875 a 5 5.5, 0, 0 , 0, 4,-5.75 z" />
  <circle id="inner" cx="132" cy="132" r="40" />
  <circle id="edge" cx="132" cy="132" r="72" />
 </g>
</svg>
