<?xml version="1.0" standalone="yes"?>
<svg xmlns="http://www.w3.org/2000/svg" viewBox="0 0 264 264" height="264" width="264">
 <defs>
  <linearGradient id="lockbody" x1="100%" y1="0%" x2="0%" y2="0%">
   <stop offset="0%" stop-color="#cbb632" />
   <stop offset="27.5%" stop-color="#ceb43c" />
   <stop offset="40%" stop-color="#d4c024" />
   <stop offset="60%" stop-color="#d4c024" />
   <stop offset="72.5%" stop-color="#efe154" />
   <stop offset="100%" stop-color="#efe258" />
  </linearGradient>
 </defs>
 <style type="text/css">
  <![CDATA[
  svg { fill: transparent; }
  #lock-border { fill: none; stroke: #9f8640; stroke-width: 12; stroke-linejoin: round; }
  #lock-body { fill: url(#lockbody); stroke: #fff8af; stroke-width: 12; }
  #shackle { fill: #8fafb8; stroke-width: 4; stroke: #4f6c7a; }
  #key-hole { fill: #9f8640; stroke-width: 1; stroke: #9f8640; }
  #beads { fill: none; stroke-width: 8; stroke: #9f8640; stroke-linecap: round; }
  #list-dots { stroke: #a3beda; stroke-width: 5; fill: #a3beda; stroke-linejoin: round; }
  #list-items { stroke: #d4d4d4; stroke-width: 5; fill: #d4d4d4; stroke-linejoin: round; }
  ]]>
 </style>
 <g id="thread-list" transform="scale(0.6)" transform-origin="100% 100%">
  <path id="list-dots" d="M7,8 h 64 v64 h-64 z
  M75,100 h 64 v64 h-64 z
  M75,192 h 64 v64 h-64 z" />
  <path id="list-items" d="M96,8 h 161 v64 h-161 z
  M167,100 h 90 v64 h-90 z
  M167,192 h 90 v64 h-90 z" />
 </g>
 <g id="lock-closed" transform="scale(0.75)" transform-origin="-30% 5%">
 <path id="shackle" d="M76,132 h-28 v-24 a 84 84, 0, 0, 1, 168,0 v24 h-28 v-24 a 56 56 , 0, 0, 0, -112,0 z" />
 <rect id="lock-body" x="46" y="144" width="172" height="105" />
 <rect id="lock-border" x="38" y="136" width="188" height="120" />
 <path id="key-hole" d="M 138,210 a 2 2, 0, 0, 0 2,-2 v -22 a 14 14, 0, 1, 0, -16,0 v 22 a 2 2, 0, 0, 0 2,2 z" />
 <path id="beads" d="M 70,171 h 32 m 60,0 h 32 m -124,26 h 32 m 60,0 h 32 m -124,26 h 124" />
 </g>
</svg>

