<?xml version="1.0" standalone="yes"?>
<svg xmlns="http://www.w3.org/2000/svg" width="264" height="264" viewBox="0 0 264 264">
 <defs>
  <linearGradient id="lockbody" x1="100%" y1="0%" x2="0%" y2="0%">
   <stop offset="0%" stop-color="#cbb632" />
   <stop offset="27.5%" stop-color="#ceb43c" />
   <stop offset="40%" stop-color="#d4c024" />
   <stop offset="60%" stop-color="#d4c024" />
   <stop offset="72.5%" stop-color="#efe154" />
   <stop offset="100%" stop-color="#efe258" />
  </linearGradient>
 </defs>
 <style type="text/css">
  <![CDATA[
  svg { fill: transparent; }
  #container { fill: #fff; stroke-width: 20; stroke: #f80800; stroke-linejoin: round; }
  #lines { fill: none; stroke-width: 16; stroke: #222; stroke-linecap: round; }
  #pinhead { fill: #d81f10; stroke: none; }
  #pin { fill: #467; stroke-width: 1; stroke: #467; stroke-linejoin: round; }
  #lock-border { fill: none; stroke: #9f8640; stroke-width: 12; stroke-linejoin: round; }
  #lock-body { fill: url(#lockbody); stroke: #fff8af; stroke-width: 12; }
  #shackle { fill: #8fafb8; stroke-width: 4; stroke: #4f6c7a; }
  #key-hole { fill: #9f8640; stroke-width: 1; stroke: #9f8640; }
  #beads { fill: none; stroke-width: 8; stroke: #9f8640; stroke-linecap: round; }
  ]]>
 </style>
 <g>
  <path id="container" d="M12,74 a30 30, 0, 0, 1, 30,-30 h180 a30 30, 0, 0, 1, 30,30 v116 a30 30, 0, 0, 1, -30,30 h-180 a30 30, 0, 0, 1, -30,-30 z" />
  <path id="lines" d="M52,84 h160 m-160,32 h86 m-86,32 h74 m46,0 h40 m-160,32 h64" />
 </g>
 <g id="sticky-pin" transform="translate(57,-46) scale(0.75) rotate(37.5)" transform-origin="center">
  <path id="pin" d="M120,82 v 90 l7,80 a5 5, 0, 0, 0, 10,0 l7,-80 v-90 z" />
  <circle id="pinhead" cx="132" cy="46" r="44" />
 </g>
 <g id="lock-closed" transform="translate(106, 86) scale(0.675)">
  <path id="shackle" d="M76,132 h-28 v-24 a 84 84, 0, 0, 1, 168,0 v24 h-28 v-24
 a 56 56 , 0, 0, 0, -112,0 z" />
  <rect id="lock-body" x="46" y="144" width="172" height="105" />
  <rect id="lock-border" x="38" y="136" width="188" height="120" />
  <path id="key-hole" d="M 138,210 a 2 2, 0, 0, 0 2,-2 v -22 a 14 14, 0, 1, 0, -16,0 v 22 a 2 2, 0, 0, 0 2,2 z" /> 
  <path id="beads" d="M 70,171 h 32 m 60,0 h 32 m -124,26 h 32 m 60,0 h 32 m -124,26 h 124" />
 </g>
</svg>

