<?xml version="1.0" standalone="yes"?>
<svg xmlns="http://www.w3.org/2000/svg" viewBox="0 0 264 264" width="264" height="264">
 <defs>
  <linearGradient id="shirt" x1="25%" y1="0%" x2="75%" y2="110%">
   <stop offset="0%" stop-color="#c2e2f8" />
   <stop offset="40%" stop-color="#6ac3fe" />
   <stop offset="100%" stop-color="#4894fa" />
  </linearGradient>
  <linearGradient id="shirt-contour" x1="25%" y1="0%" x2="75%" y2="100%">
   <stop offset="0%" stop-color="#4c74df" />
   <stop offset="100%" stop-color="#204cb0" />
  </linearGradient>
  <linearGradient id="face-skin" x1="0%" y1="0%" x2="100%" y2="0%">
   <stop offset="0%" stop-color="#f6dac2" />
   <stop offset="33.333%" stop-color="#f0cba3" />
   <stop offset="66.666%" stop-color="#eec69e" />
   <stop offset="100%" stop-color="#f0d4ba" />
  </linearGradient>
  <linearGradient id="face-contour" x1="25%" y1="0%" x2="75%" y2="100%">
   <stop offset="0%" stop-color="#bc8864" />
   <stop offset="100%" stop-color="#af8f5c" />
  </linearGradient>
  <linearGradient id="hairdo" x1="60%" y1="100%" x2="40%" y2="0%">
   <stop offset="0%" stop-color="#784420" />
   <stop offset="15%" stop-color="#7f5024" />
   <stop offset="30%" stop-color="#8f5020" />
   <stop offset="80%" stop-color="#a97444" />
   <stop offset="100%" stop-color="#a97f54" />
  </linearGradient>
  <linearGradient id="hand-l" x1="0%" y1="25%" x2="100%" y2="75%">
   <stop offset="0%" stop-color="#d99146" />
   <stop offset="20%" stop-color="#e8b57f" />
   <stop offset="45%" stop-color="#e8b57f" />
   <stop offset="100%" stop-color="#d99146" />
  </linearGradient>
  <linearGradient id="hand-r" x1="100%" y1="25%" x2="0%" y2="75%">
   <stop offset="0%" stop-color="#d99146" />
   <stop offset="20%" stop-color="#e8b57f" />
   <stop offset="45%" stop-color="#e8b57f" />
   <stop offset="100%" stop-color="#d99146" />
  </linearGradient>
  <linearGradient id="shaft" x1="0%" y1="0%" x2="100%" y2="0%">
   <stop offset="0%" stop-color="#fff2b8" />
   <stop offset="100%" stop-color="#b89802" />
  </linearGradient>
  <linearGradient id="tipping" x1="0%" y1="0%" x2="0%" y2="100%">
   <stop offset="0%" stop-color="#e8e8c0" />
   <stop offset="54%" stop-color="#e8e8c0" />
   <stop offset="55%" stop-color="#9f8640" />
   <stop offset="100%" stop-color="#9f8640" />
  </linearGradient>
 </defs>
 <style type="text/css">
  <![CDATA[
  svg { fill: transparent; }
  #torso { fill: url(#shirt); stroke: url(#shirt-contour); stroke-width: 12; stroke-linejoin: round; }
  #hand-left { fill: url(#hand-l); stroke: none; stroke-width: 1; }
  #hand-right { fill: url(#hand-r); stroke: none; stroke-width: 1; }
  .hand-contour { fill: #d28331; stroke: none; stroke-width: 1; }
  #face { fill: url(#face-skin); stroke: url(#face-contour); stroke-width: 8; stroke-linejoin: round; }
  #hair { fill: url(#hairdo); stroke: url(#hairdo); stroke-width: 1; stroke-linejoin: round; }
  #contour { fill: none; stroke: #9f8640; stroke-width: 8; stroke-linejoin: round; stroke-linecap: round; }
  #pen { fill: url(#shaft); stroke: none; }
  #cap { fill: url(#shaft); stroke: none; }
  #tip { fill: url(#tipping); stroke: none; }
  ]]>
 </style>
 <g>
  <path id="torso" d="M 80,254 a 120 120, 0, 0, 0 -52,-44 v -24 a 120 120, 0, 0, 1 52,-52 h 104 a 120 120, 0, 0, 1 52,52 v 24 a 120 120, 0, 0, 0 -52,44 z" />
  <path id="face" d="M 104,142 a 46 46, 0, 0, 1, -36,-36 v -60 h 132 v 60 a 46 46, 0, 0, 1, -36,36 z" />
  <path id="hair" d="M 76,80 a 8 8, 0, 0, 1, -16,0 a 12 44, 0, 0, 1, 0,-32 a 64 64, 0, 0, 1, 44,-44 a 40 8, 0, 0, 1, 60,0 a 64 64, 0, 0, 1, 44,44 a 12, 44, 0, 0, 1, 0,32 a 8 8, 0, 0, 1, -16,0 v -6 a 6 6, 0, 0, 0, -6,-6 h -38 
  a 12 12, 0, 0, 1, -11.25,-8 a 12 12, 0, 0, 0, -11.25,-8 h -43.5 a 6 6, 0, 0,0 , -6,6 z" />
  <path id="hand-right" d="M 12,218 l 12, 18 h 8 a 8 8, 0, 0, 0, 8,-8 v -30 a 8 8, 0, 0, 0, -8,-8 h -12 a 8 8, 0, 0, 0, -8,8 z" />
  <path class="hand-contour" d="M 8,218 a 12.667 20, 0, 0, 0, 12.667,20 h 11.5 a 8 12, 0, 0, 0, 8,-12 a 6 4, 0, 0, 1, -6,4 h -9.5 a 8 12, 0, 0, 1, -8,-12 v -27.5 a 10 8, 0, 0, 0, -8.667,8 z" />
  <path id="hand-left" d="M 252,218 l -12, 18 h -8 a 8 8, 0, 0, 1, -8,-8 v -30 a 8 8, 0, 0, 1, 8,-8 h 12 a 8 8, 0, 0, 1, 8,8 z" />
  <path class="hand-contour" d="M 256,218 a 12.667 20, 0, 0, 1, -12.667,20 h -11.5 a 8 12, 0, 0, 1, -8,-12 a 6 4, 0, 0, 0, 6,4 h 9.5 a 8 12, 0, 0, 0, 8,-12 v -27.5 a 10 8, 0, 0, 1, 8.667,8 z" />
 </g>
 <g id="pencil" transform="translate(68.5, 78.5) scale(0.825) rotate(45, 132, 132)">
  <path id="cap" d="M 102,20 a 60 96, 0, 0, 1, 60,0  v 8 a 60 64, 0, 0, 1, -60,0 z" />
  <path id="pen" d="M 102,28 a 60 64, 0, 0, 0, 60,0 v 160 a 60 64, 0, 0, 1, -60,0 z" />
  <path id="tip" d="M 102,188 a 60 64, 0, 0, 0, 60,0 l -30,68 z" />
  <path id="contour" d="M 102,20 a 60 96, 0, 0, 1, 60,0 v 168 l -30,68 -30,-68 z M 112,33 a 60 64, 0, 0, 0, 40,0" />
 </g>
</svg>

